# xmcd
#
# Track frame offsets: 
#        150
#        3807
#        24264
#        46294
#        85532
#        109628
#        121295
#        143329
#        163847
#        183628
#        201578
#        224767
#
# Disc length: 3295 seconds
#
# Revision: 28
# Processed by: cddbd v1.5.2PL0 Copyright (c) Steve Scherf et al.
# Submitted via: ExactAudioCopy v1.3
#
DISCID=9c0cdd0c
DTITLE=Perfume - Triangle
DYEAR=2009
DGENRE=JPop
TTITLE0=Take off
TTITLE1=love the world
TTITLE2=Dream Fighter
TTITLE3=edge <トライアングル-mix>
TTITLE4=NIGHT FLIGHT
TTITLE5=Kiss and Music
TTITLE6=Zero Gravity
TTITLE7=I still love U
TTITLE8=The best thing
TTITLE9=Speed of Sound
TTITLE10=ワンルーム・ディスコ
TTITLE11=願い(Album Mix)
EXTD=
EXTT0=
EXTT1=
EXTT2=
EXTT3=
EXTT4=
EXTT5=
EXTT6=
EXTT7=
EXTT8=
EXTT9=
EXTT10=
EXTT11=
PLAYORDER=
